<?xml version="1.0" encoding="UTF-8"?>
<svg id="Layer_1" data-name="Layer 1" xmlns="http://www.w3.org/2000/svg" xmlns:xlink="http://www.w3.org/1999/xlink" version="1.1" viewBox="0 0 122 80">
  <defs>
    <style>
      .cls-1 {
        clip-path: url(#clippath);
      }

      .cls-2 {
        fill: none;
      }

      .cls-2, .cls-3, .cls-4 {
        stroke-width: 0px;
      }

      .cls-5 {
        mask: url(#mask);
      }

      .cls-3 {
        fill: url(#linear-gradient);
      }

      .cls-4 {
        fill: #fff;
      }
    </style>
    <clipPath id="clippath">
      <rect class="cls-2" width="121.4" height="80"/>
    </clipPath>
    <mask id="mask" x="0" y="0" width="121.4" height="59" maskUnits="userSpaceOnUse">
      <g id="mask0_91_165" data-name="mask0 91 165">
        <path class="cls-4" d="M111.9,23v23c0,.8.3,1.5.8,2,.5.5,1.3.9,2,.9.4,0,.8,0,1.1-.2.3-.1.7-.4.9-.6.3-.3.5-.6.6-.9.1-.4.2-.7.2-1.1v-23c0-.8-.3-1.5-.8-2-.5-.5-1.3-.9-2-.9-.4,0-.8,0-1.1.2-.3.1-.7.4-.9.6-.3.3-.5.6-.6.9s-.2.7-.2,1.1ZM9,39.6c0-2.6,2.4-4,5.6-4s4.1.3,6.5.9v6c-.5.4-2.5,1.7-6.2,1.7s-5.9-1.6-5.9-4.5M7.2,21.2c-1.4.7-1.9,1.7-1.9,2.6,0,1.7,1.6,2.9,3.9,2.1,1.5-.5,3.7-1.2,5.8-1.2,4.2,0,6,1.6,6,5.2v1.8c-2.5-.6-4.3-.9-6.8-.9-7.3,0-10.7,4-10.9,8.4v1c.2,5,3.9,8.8,11,8.8s9.7-2,11.2-3c.8-.5,1-1.1,1-2.1v-13.9c0-7.2-4.2-10.4-11.1-10.4s-6.7.9-8.2,1.6M62.8,39.6c0-2.6,2.4-4,5.6-4s4.1.3,6.5.9v6c-.5.4-2.5,1.7-6.2,1.7s-5.9-1.6-5.9-4.5M61.1,21.2c-1.4.7-1.9,1.7-1.9,2.6,0,1.7,1.6,2.9,3.9,2.1,1.5-.5,3.6-1.2,5.8-1.2,4.2,0,6,1.6,6,5.2v1.8c-2.5-.6-4.3-.9-6.8-.9-7.5,0-10.9,4.2-10.9,8.9s3.6,9.3,11,9.3,9.7-2,11.2-3c.8-.5,1-1.1,1-2.1v-13.9c0-7.2-4.2-10.4-11.1-10.4s-6.7.9-8.2,1.6M85.3,22.5c-.8.5-1.1,1.1-1.1,2.2v21.1c0,.8.3,1.5.8,2,.5.5,1.3.9,2,.9.4,0,.8,0,1.1-.2.3-.1.7-.4.9-.6.3-.3.5-.6.6-.9.1-.4.2-.7.2-1.1v-19.3c1.2-.8,3.7-1.5,6.4-1.5s6.2,1.8,6.2,6.1v14.6c0,.8.3,1.5.8,2,.5.5,1.3.9,2,.9,1.7,0,2.8-1.3,2.8-2.9v-14.9c0-7.2-4-11.3-11.8-11.3s-9.6,1.8-11.1,2.9ZM35.6,37.3c-.1-1.7-.1-4.8,0-6.3.2-3.9,2.2-6,6.2-6s5.5,1,6.6,1.7v14.9c-1.1.8-3.9,1.9-6.2,1.9-4.1,0-6.3-2.2-6.7-6.3ZM48.4,13.1v8c-2.2-1-4.6-1.5-7-1.5-6.9,0-10.9,4.1-11.5,10.8-.2,2.5-.2,5.1,0,7.6.6,6.6,5,11.1,12.2,11.1s9.5-2.3,10.9-3.3c.9-.6,1-1.2,1-2.1V13.1c0-.4,0-.8-.2-1.1-.1-.4-.3-.7-.6-.9-.3-.3-.6-.5-.9-.6-.3-.1-.7-.2-1.1-.2-.8,0-1.5.3-2,.9-.5.5-.8,1.3-.8,2ZM111.6,13.1c0,1.8,1.3,3.3,3.2,3.3s3.2-1.5,3.2-3.3c0-.4,0-.8-.2-1.2-.2-.4-.4-.7-.7-1-.3-.3-.6-.5-1-.7-.4-.2-.8-.2-1.2-.2-1.9,0-3.2,1.4-3.2,3.2Z"/>
      </g>
    </mask>
    <linearGradient id="linear-gradient" x1="-50.3" y1="42.8" x2="163.2" y2="61.5" gradientTransform="translate(0 82) scale(1 -1)" gradientUnits="userSpaceOnUse">
      <stop offset="0" stop-color="#00b16b"/>
      <stop offset=".3" stop-color="#006db7"/>
      <stop offset=".7" stop-color="#8e278f"/>
      <stop offset=".9" stop-color="#f04d23"/>
      <stop offset="1" stop-color="#f04d23"/>
    </linearGradient>
  </defs>
  <g class="cls-1">
    <g>
      <path class="cls-4" d="M100.8,60.3H20.5c0,0-.1,0-.2,0,0,0-.1,0-.2-.1,0,0,0-.1-.1-.2,0,0,0-.1,0-.2s0-.1,0-.2c0,0,0-.1.1-.2,0,0,.1,0,.2-.1,0,0,.1,0,.2,0h80.3c.1,0,.3,0,.3.2,0,0,.1.2.1.4s0,.3-.1.4c0,0-.2.2-.3.2Z"/>
      <g class="cls-5">
        <path class="cls-3" d="M117.1,0L0,10.2l4.3,48.8,117.1-10.2L117.1,0Z"/>
      </g>
      <path class="cls-4" d="M48.9,79c0,.2,0,.5-.2.6,0,0-.2.2-.3.2-.1,0-.2,0-.4,0-.2,0-.4,0-.6-.2,0,0-.1-.1-.2-.2,0,0,0-.2,0-.3l-1.1-8.7c0,0,0-.1-.1-.1,0,0,0,0,0,0,0,0,0,0,0,0l-1.8,8c0,.4-.3.8-.6,1.1-.3.2-.6.3-1,.3-.4,0-.7-.1-1-.3-.3-.3-.5-.6-.6-1.1l-1.8-7.9c0,0,0-.1-.1-.1s-.1,0-.1.1l-1.1,8.7c0,0,0,.2,0,.3,0,0-.1.2-.2.2-.2.1-.4.2-.6.2-.1,0-.2,0-.4,0-.1,0-.2-.1-.3-.2-.1-.2-.2-.4-.2-.6,0,0,0-.1,0-.2l1.3-8.7c0-.5.3-.9.6-1.2.3-.2.7-.4,1-.4.4,0,.8.1,1.1.3.3.3.6.7.6,1.1l1.7,7.8s0,0,0,0c0,0,0,0,0,0s0,0,0,0c0,0,0,0,.1,0,0,0,0,0,0,0l1.7-7.8c0-.4.3-.8.6-1.1.3-.2.7-.4,1-.3.4,0,.8.1,1.1.4.3.2.5.6.6,1.2l1.3,8.7c0,0,0,.1,0,.2"/>
      <path class="cls-4" d="M57.9,75.3c0,.3,0,.5-.2.7,0,.1-.2.2-.4.2-.1,0-.3,0-.4,0h-4.5v.2c0,.6.2,1.1.6,1.5.4.4,1,.5,1.5.5.3,0,.6,0,.9-.1.3,0,.6-.2.9-.3.1,0,.3,0,.5,0,.1,0,.3,0,.4.1,0,0,.2.2.2.3,0,.1,0,.2,0,.3,0,.1,0,.3,0,.4,0,.1-.2.3-.3.3-.2,0-.3.2-.5.2-.2,0-.4.1-.6.2-.2,0-.5,0-.7.1-.2,0-.5,0-.7,0-.5,0-1,0-1.5-.3-.4-.2-.8-.4-1.1-.7-.3-.3-.6-.7-.8-1.1-.2-.4-.3-.9-.3-1.4,0-.1,0-.3,0-.5s0-.4,0-.5,0-.3,0-.5c0-.2,0-.3,0-.4,0-.5.2-.9.3-1.4.2-.4.4-.8.8-1.1.3-.3.7-.5,1.1-.7.4-.2.9-.2,1.4-.2.5,0,1,0,1.4.3.4.2.8.4,1.1.7.3.3.6.7.7,1.1.2.5.3,1,.3,1.4v.4ZM56,75c.1,0,.2,0,.2-.2,0-.3,0-.5,0-.8,0-.2-.2-.5-.4-.7-.2-.2-.4-.3-.7-.4-.2,0-.5-.1-.8-.1-.7,0-1.2.2-1.5.6-.3.4-.5.9-.5,1.6h3.7Z"/>
      <path class="cls-4" d="M64.4,79.7c-.3.1-.6.2-.8.2-.3,0-.6,0-.9,0-.4,0-.8,0-1.2-.2-.3-.1-.6-.3-.8-.6-.2-.3-.4-.6-.5-.9-.1-.4-.2-.7-.2-1.1v-6.6c0-.1,0-.2,0-.3,0-.1.1-.2.2-.3,0,0,.2-.1.3-.2.1,0,.2,0,.3,0,.1,0,.2,0,.3,0,.1,0,.2.1.3.2,0,0,.1.2.2.3,0,.1,0,.2,0,.3v1.2h2.2c.2,0,.4,0,.5.2,0,0,.1.1.2.2,0,0,0,.2,0,.3s0,.2,0,.3c0,0-.1.2-.2.2-.1.1-.3.2-.5.2h-2.2v3.9c0,.3,0,.7.3.9.1.1.2.2.4.3.1,0,.3,0,.5,0,.2,0,.4,0,.6,0l.5-.2c.1,0,.3,0,.4,0,.1,0,.2,0,.3.1,0,0,.2.2.2.3,0,.1,0,.2,0,.3,0,.2,0,.3-.1.4-.1.2-.3.3-.4.3"/>
      <path class="cls-4" d="M73,78.5c0,.1,0,.2,0,.4,0,.1-.1.2-.2.3-.1,0-.3.2-.5.3-.2.1-.5.2-.7.3-.7.2-1.4.3-2.1.3-.5,0-1,0-1.4-.2-.4-.1-.7-.3-1-.6-.3-.2-.5-.5-.6-.9-.1-.3-.2-.7-.2-1.1,0-.3,0-.7.2-1,.1-.3.3-.6.6-.8.3-.3.6-.5,1-.6.5-.2,1-.2,1.4-.2.3,0,.7,0,1,0,.3,0,.6.1,1,.2v-.5c0-.5-.1-.9-.4-1.2-.3-.2-.7-.4-1.3-.4-.3,0-.6,0-.9.1-.3,0-.5.1-.8.2-.3.1-.6.1-.8,0,0,0-.2-.1-.2-.3,0-.1,0-.2,0-.3,0-.1,0-.3.1-.4.1-.2.3-.3.4-.4.3-.1.7-.3,1-.3.5-.1.9-.2,1.4-.1,1,0,1.8.2,2.4.7.6.5.9,1.3.9,2.3v4.1ZM69.6,78.5c.4,0,.9,0,1.3-.2.2,0,.4-.2.6-.3v-1.8c-.3,0-.7-.1-1-.2-.3,0-.6,0-1,0-.4,0-.8,0-1.2.3-.1,0-.3.2-.4.4,0,.2-.1.3-.1.5,0,.2,0,.4.1.5,0,.2.2.3.3.4.3.2.7.3,1.3.3Z"/>
      <path class="cls-4" d="M76.4,68.6c.1,0,.2,0,.3,0,.1,0,.2.1.3.2,0,0,.1.2.2.3,0,.1,0,.2,0,.3v9.6c0,.1,0,.2,0,.3,0,.1-.1.2-.2.3,0,0-.2.1-.3.2-.1,0-.2,0-.3,0-.2,0-.4,0-.6-.3-.2-.2-.2-.4-.2-.6v-9.6c0-.1,0-.2,0-.3,0-.1.1-.2.2-.3,0,0,.2-.1.3-.2.1,0,.2,0,.3,0Z"/>
      <path class="cls-4" d="M85.7,77.4c0,.4,0,.7-.2,1.1-.2.3-.4.6-.7.8-.3.2-.6.4-1,.5-.4.1-.8.2-1.3.2-.6,0-1.2,0-1.7-.2-.4-.1-.8-.4-1.2-.7-.2-.1-.3-.3-.3-.5,0-.2,0-.4.1-.6.1-.2.3-.3.5-.3.2,0,.4,0,.6.2.3.2.5.3.8.4.4.1.8.2,1.2.2.5,0,.9,0,1.1-.3.1,0,.2-.2.3-.3,0-.1,0-.3,0-.4,0-.1,0-.2,0-.3s-.1-.2-.2-.3c-.2-.2-.5-.3-.8-.4h-.3c0,0-.2-.1-.2-.1h-.2c0,0-.2-.1-.4-.1-.6-.1-1.2-.4-1.7-.8-.2-.2-.4-.4-.5-.7-.1-.3-.2-.6-.1-.8,0-.4,0-.7.2-1.1.2-.3.4-.6.7-.8.3-.2.6-.4,1-.5.4-.1.8-.2,1.2-.2.5,0,.9,0,1.3.2.4.1.7.3,1.1.5,0,0,.2.1.2.2,0,0,0,.2,0,.3,0,.2,0,.4-.2.5,0,0-.1.1-.2.2,0,0-.2,0-.3,0-.2,0-.4,0-.6-.1-.4-.3-.9-.4-1.5-.4-1,0-1.4.3-1.4,1,0,0,0,.2,0,.3,0,0,.1.2.2.2.3.2.5.3.9.4l1.2.3c1.5.4,2.2,1.2,2.2,2.4"/>
    </g>
  </g>
</svg>