<svg version="1.1" xmlns="http://www.w3.org/2000/svg"  width="40" height="auto" viewBox="0 0 610 610">
<path d="M0 0 C1.10116653 -0.00101212 1.10116653 -0.00101212 2.22457886 -0.00204468 C77.05078241 0.10581037 151.47719284 28.26838699 206.19921875 79.63671875 C208.77716982 82.04208732 211.40803201 84.36745317 214.0625 86.6875 C219.7908902 91.83939087 224.91540332 97.47751899 230 103.25 C230.66684814 103.99975098 230.66684814 103.99975098 231.34716797 104.76464844 C275.49052735 154.60132381 304.89003529 224.1311218 305.203125 291.06640625 C305.21018463 292.07245911 305.21724426 293.07851196 305.22451782 294.11505127 C305.45163209 335.98395055 305.45163209 335.98395055 302 354.25 C301.80132324 355.33829102 301.60264648 356.42658203 301.39794922 357.54785156 C290.821456 414.1934894 265.89072926 466.58464704 227 509.25 C226.37383789 509.93787598 225.74767578 510.62575195 225.10253906 511.33447266 C223.13941256 513.48106438 221.16636188 515.61791039 219.1875 517.75 C218.58945557 518.39670654 217.99141113 519.04341309 217.37524414 519.7097168 C213.15904497 524.19811643 208.67762929 528.25027939 204 532.25 C202.92792185 533.19852894 201.85750035 534.14893494 200.7890625 535.1015625 C166.21897474 565.57389107 124.38887842 587.23756652 80 599.25 C79.14841309 599.48412598 78.29682617 599.71825195 77.41943359 599.95947266 C52.86613158 606.60074559 27.39809043 609.47870227 2 609.5 C0.89883347 609.50101212 0.89883347 609.50101212 -0.22457886 609.50204468 C-75.05078241 609.39418963 -149.47719284 581.23161301 -204.19921875 529.86328125 C-206.77716982 527.45791268 -209.40803201 525.13254683 -212.0625 522.8125 C-217.7908902 517.66060913 -222.91540332 512.02248101 -228 506.25 C-228.44456543 505.75016602 -228.88913086 505.25033203 -229.34716797 504.73535156 C-273.49052735 454.89867619 -302.89003529 385.3688782 -303.203125 318.43359375 C-303.21018463 317.42754089 -303.21724426 316.42148804 -303.22451782 315.38494873 C-303.45163209 273.51604945 -303.45163209 273.51604945 -300 255.25 C-299.80132324 254.16170898 -299.60264648 253.07341797 -299.39794922 251.95214844 C-288.821456 195.3065106 -263.89072926 142.91535296 -225 100.25 C-224.37383789 99.56212402 -223.74767578 98.87424805 -223.10253906 98.16552734 C-221.13941256 96.01893562 -219.16636188 93.88208961 -217.1875 91.75 C-216.58945557 91.10329346 -215.99141113 90.45658691 -215.37524414 89.7902832 C-211.15904497 85.30188357 -206.67762929 81.24972061 -202 77.25 C-200.92792185 76.30147106 -199.85750035 75.35106506 -198.7890625 74.3984375 C-164.21897474 43.92610893 -122.38887842 22.26243348 -78 10.25 C-77.14841309 10.01587402 -76.29682617 9.78174805 -75.41943359 9.54052734 C-50.86613158 2.89925441 -25.39809043 0.02129773 0 0 Z " fill="#000000" transform="translate(303,-0.25)"/>
<path d="M0 0 C1.54296875 2.00927734 1.54296875 2.00927734 3.1875 4.8359375 C3.79907959 5.87290771 4.41065918 6.90987793 5.04077148 7.97827148 C6.0105896 9.6596521 6.0105896 9.6596521 7 11.375 C8.00641812 13.09013225 9.01284411 14.80526054 10.02085876 16.51945496 C10.69874779 17.67342557 11.37522494 18.8282267 12.05030823 19.98384094 C15.54069533 25.95404327 19.17758242 31.83116541 22.84960938 37.69091797 C26 42.78308162 26 42.78308162 26 45 C25.39341553 45.32572998 24.78683105 45.65145996 24.16186523 45.98706055 C12.92130773 52.0305864 1.71416306 58.11975414 -9.375 64.4375 C-18.73010034 69.76385599 -28.17780768 74.90021237 -37.66625977 79.98461914 C-44.42817587 83.60957946 -51.16203186 87.27692663 -57.85986328 91.01879883 C-62.66681007 93.70419818 -67.48250436 96.3733097 -72.3046875 99.03125 C-72.95146957 99.38776642 -73.59825165 99.74428284 -74.26463318 100.11160278 C-76.87925802 101.5525532 -79.49404159 102.99321411 -82.10928345 104.43304443 C-83.94159689 105.44188598 -85.77355103 106.45137758 -87.60546875 107.4609375 C-88.66918701 108.04665527 -89.73290527 108.63237305 -90.82885742 109.23583984 C-94.23432469 111.13035878 -97.61647872 113.06655927 -101 115 C-14.54 115.33 71.92 115.66 161 116 C160.40121456 124.98178165 159.77912991 133.83813858 158.73046875 142.7578125 C158.60950836 143.81285477 158.48854797 144.86789703 158.36392212 145.95491028 C158.10704236 148.19284061 157.8486362 150.43059621 157.58877563 152.66818237 C156.90327186 158.57350361 156.2300104 164.4802262 155.5546875 170.38671875 C155.42034805 171.55878372 155.28600861 172.73084869 155.14759827 173.93843079 C154.00303565 183.93461062 152.89144845 193.93403491 151.8125 203.9375 C151.73154083 204.68686829 151.65058167 205.43623657 151.56716919 206.20831299 C150.53299749 215.80050586 149.56053331 225.39765915 148.625 235 C147.18585869 249.73854777 145.4833383 264.44528409 143.79693604 279.15722656 C141.74468308 297.09322452 139.83109492 315.04015366 138 333 C135.93757622 353.22877879 133.74055628 373.43768234 131.42385864 393.6388855 C130.01368187 405.93994173 128.6277085 418.23788668 127.4375 430.5625 C126.3041673 442.28770285 125.03425683 453.99545894 123.71755981 465.7013855 C123.49040099 467.72298777 123.2645364 469.74473591 123.04000854 471.76663208 C122.72594659 474.58967632 122.40673477 477.41208919 122.0859375 480.234375 C121.99126694 481.09113327 121.89659637 481.94789154 121.79905701 482.83061218 C121.11461733 488.77076533 121.11461733 488.77076533 120 491 C39.81 491 -40.38 491 -123 491 C-124.40614288 485.37542847 -125.46075212 480.21249453 -126.04296875 474.51171875 C-126.1319342 473.6855304 -126.22089966 472.85934204 -126.31256104 472.00811768 C-126.60965109 469.2351286 -126.89853503 466.46134663 -127.1875 463.6875 C-127.40131955 461.67711632 -127.61560834 459.6667825 -127.83032227 457.65649414 C-129.13327314 445.41398252 -130.39940657 433.16758493 -131.671875 420.921875 C-132.11139339 416.69293216 -132.55099255 412.46399773 -132.99072266 408.2350769 C-133.28948407 405.36183305 -133.58794603 402.4885583 -133.88623047 399.61526489 C-136.44717456 374.95852951 -139.18929347 350.32531262 -142.01081848 325.69697571 C-143.50776631 312.60184503 -144.91436591 299.49708905 -146.31488037 286.39135742 C-146.83261699 281.5492795 -147.35750991 276.70802403 -147.88671875 271.8671875 C-149.54307545 256.69282651 -151.15918366 241.51462924 -152.73828125 226.33203125 C-152.89424553 224.83353616 -153.05021582 223.3350417 -153.20619202 221.83654785 C-153.91055 215.06752702 -154.61389901 208.29840685 -155.31313992 201.52885532 C-155.6086121 198.67138707 -155.90544805 195.81406144 -156.20255089 192.95676231 C-156.40566099 190.99895223 -156.60702022 189.04096074 -156.80830383 187.08296204 C-157.34067614 181.96928445 -157.88101256 176.85955625 -158.53924561 171.76040649 C-158.63084143 171.05016736 -158.72243725 170.33992823 -158.8168087 169.60816669 C-159.07571351 167.62460633 -159.34068707 165.64184082 -159.60604858 163.65913391 C-160.16915462 158.42884327 -160.17905069 153.25215346 -160 148 C-169.5087875 152.53191779 -178.66368911 157.58268842 -187.8112793 162.79956055 C-197.91817152 168.55225923 -208.14110004 174.08268716 -218.38964844 179.578125 C-221.6706132 181.36528725 -224.90531855 183.22948916 -228.12939453 185.1171875 C-230 186 -230 186 -233 186 C-234.55682017 183.82056732 -235.88493161 181.70637051 -237.203125 179.38671875 C-237.80444244 178.36044121 -237.80444244 178.36044121 -238.41790771 177.31343079 C-239.70581826 175.11073754 -240.97831647 172.89959422 -242.25 170.6875 C-243.50687539 168.52266634 -244.76690329 166.3596998 -246.0279541 164.19729614 C-246.84995355 162.78725375 -247.67019942 161.37618755 -248.48864746 159.96408081 C-251.44812146 154.87676095 -254.5585558 149.92093886 -257.81152344 145.01489258 C-259 143 -259 143 -259 141 C-258.45811035 140.71914551 -257.9162207 140.43829102 -257.35791016 140.14892578 C-245.6695452 134.0820023 -234.06995357 127.8900582 -222.58398438 121.44873047 C-207.45432958 112.96617458 -192.28570664 104.58035983 -176.97497559 96.43011475 C-168.10152089 91.70313707 -159.32448229 86.83161206 -150.59204102 81.84985352 C-142.24728938 77.10357132 -133.80271457 72.55392656 -125.34155273 68.01928711 C-116.99383812 63.54348322 -108.69364845 58.99190582 -100.43066406 54.36181641 C-97.67118146 52.81577443 -94.90981638 51.27312112 -92.1484375 49.73046875 C-79.62456486 42.72970943 -79.62456486 42.72970943 -67.1328125 35.671875 C-56.4929828 29.62819003 -45.80729363 23.69209362 -35.02636719 17.90332031 C-29.80854264 15.09319557 -24.62537589 12.23477863 -19.48046875 9.29296875 C-18.42537109 8.6896875 -17.37027344 8.08640625 -16.28320312 7.46484375 C-14.25901814 6.30269338 -12.23803328 5.13494662 -10.22070312 3.9609375 C-9.31642578 3.44144531 -8.41214844 2.92195313 -7.48046875 2.38671875 C-6.28780396 1.69388794 -6.28780396 1.69388794 -5.07104492 0.98706055 C-3 0 -3 0 0 0 Z " fill="#2E7D32" transform="translate(326,62)"/>
<path d="M0 0 C1.54296875 2.00927734 1.54296875 2.00927734 3.1875 4.8359375 C3.79907959 5.87290771 4.41065918 6.90987793 5.04077148 7.97827148 C6.0105896 9.6596521 6.0105896 9.6596521 7 11.375 C8.00641812 13.09013225 9.01284411 14.80526054 10.02085876 16.51945496 C10.69874779 17.67342557 11.37522494 18.8282267 12.05030823 19.98384094 C15.54069533 25.95404327 19.17758242 31.83116541 22.84960938 37.69091797 C26 42.78308162 26 42.78308162 26 45 C25.39341553 45.32572998 24.78683105 45.65145996 24.16186523 45.98706055 C12.92130773 52.0305864 1.71416306 58.11975414 -9.375 64.4375 C-18.73010034 69.76385599 -28.17780768 74.90021237 -37.66625977 79.98461914 C-45.1801264 84.0126887 -52.65042145 88.10910138 -60.09375 92.265625 C-66.32052886 95.74189259 -72.56743465 99.18173939 -78.8125 102.625 C-80.06356369 103.31493098 -81.3146216 104.00487245 -82.56567383 104.69482422 C-85.10964261 106.09776129 -87.65367981 107.50057421 -90.19775391 108.90332031 C-95.69861537 111.9364974 -101.19857571 114.97130763 -106.69857788 118.00604248 C-109.71567918 119.67076642 -112.73284284 121.33537732 -115.75 123 C-116.95833363 123.66666613 -118.16666696 124.3333328 -119.375 125 C-155.62500002 145.00000001 -155.62500002 145.00000001 -157.43736267 145.99992371 C-158.64615436 146.66684361 -159.85494546 147.33376459 -161.06373596 148.00068665 C-164.07755157 149.66348759 -167.09137737 151.32627005 -170.10522461 152.98901367 C-174.99361663 155.68596772 -179.88200339 158.38293114 -184.77001953 161.08056641 C-185.39638306 161.42624664 -186.02274658 161.77192688 -186.66809082 162.12808228 C-187.93105303 162.82512356 -189.19399258 163.52220591 -190.45690918 164.21932983 C-193.53745729 165.91964729 -196.61849056 167.61907217 -199.70068359 169.31640625 C-205.19674634 172.34378855 -210.687294 175.38003261 -216.16015625 178.44921875 C-217.09142334 178.96895264 -218.02269043 179.48868652 -218.98217773 180.02416992 C-220.69162926 180.97877819 -222.39837354 181.93825771 -224.10180664 182.90356445 C-224.84422607 183.31695068 -225.58664551 183.73033691 -226.3515625 184.15625 C-227.30796631 184.69475586 -227.30796631 184.69475586 -228.28369141 185.24414062 C-230 186 -230 186 -233 186 C-234.55682017 183.82056732 -235.88493161 181.70637051 -237.203125 179.38671875 C-237.80444244 178.36044121 -237.80444244 178.36044121 -238.41790771 177.31343079 C-239.70581826 175.11073754 -240.97831647 172.89959422 -242.25 170.6875 C-243.50687539 168.52266634 -244.76690329 166.3596998 -246.0279541 164.19729614 C-246.84995355 162.78725375 -247.67019942 161.37618755 -248.48864746 159.96408081 C-251.44812146 154.87676095 -254.5585558 149.92093886 -257.81152344 145.01489258 C-259 143 -259 143 -259 141 C-258.45811035 140.71914551 -257.9162207 140.43829102 -257.35791016 140.14892578 C-245.6695452 134.0820023 -234.06995357 127.8900582 -222.58398438 121.44873047 C-207.45432958 112.96617458 -192.28570664 104.58035983 -176.97497559 96.43011475 C-168.10152089 91.70313707 -159.32448229 86.83161206 -150.59204102 81.84985352 C-142.24728938 77.10357132 -133.80271457 72.55392656 -125.34155273 68.01928711 C-116.99383812 63.54348322 -108.69364845 58.99190582 -100.43066406 54.36181641 C-97.67118146 52.81577443 -94.90981638 51.27312112 -92.1484375 49.73046875 C-79.62456486 42.72970943 -79.62456486 42.72970943 -67.1328125 35.671875 C-56.4929828 29.62819003 -45.80729363 23.69209362 -35.02636719 17.90332031 C-29.80854264 15.09319557 -24.62537589 12.23477863 -19.48046875 9.29296875 C-18.42537109 8.6896875 -17.37027344 8.08640625 -16.28320312 7.46484375 C-14.25901814 6.30269338 -12.23803328 5.13494662 -10.22070312 3.9609375 C-9.31642578 3.44144531 -8.41214844 2.92195313 -7.48046875 2.38671875 C-6.28780396 1.69388794 -6.28780396 1.69388794 -5.07104492 0.98706055 C-3 0 -3 0 0 0 Z " fill="#E8E8E8" transform="translate(326,62)"/>
<path d="M0 0 C3.22041026 3.82642837 5.84521687 7.87016123 8.37109375 12.171875 C8.97740379 13.19465546 8.97740379 13.19465546 9.59596252 14.23809814 C10.44735769 15.6759023 11.29693067 17.11478686 12.14477539 18.5546875 C13.42660393 20.73149623 14.71374379 22.9050875 16.00195312 25.078125 C20.09855472 32.00043136 24.14504819 38.93918477 28 46 C26.90836548 46.57947388 26.90836548 46.57947388 25.79467773 47.1706543 C12.25457499 54.36732038 -1.23166218 61.62695473 -14.55297852 69.22338867 C-22.30101842 73.63225592 -30.12795422 77.8828216 -37.98095703 82.10131836 C-46.23859559 86.55080949 -54.40060406 91.15876235 -62.515625 95.86328125 C-63.85753906 96.63285156 -63.85753906 96.63285156 -65.2265625 97.41796875 C-66.00596191 97.86938232 -66.78536133 98.3207959 -67.58837891 98.78588867 C-70.32115 100.1616804 -73.08137669 101.09402936 -76 102 C-76.4626123 101.23558594 -76.92522461 100.47117187 -77.40185547 99.68359375 C-90.06765529 78.75975101 -90.06765529 78.75975101 -103 58 C-99.56844434 55.11136239 -96.16455381 52.86694629 -92.1953125 50.78515625 C-91.06641602 50.18815918 -89.93751953 49.59116211 -88.77441406 48.97607422 C-88.17987427 48.66442322 -87.58533447 48.35277222 -86.97277832 48.03167725 C-83.80603522 46.37069047 -80.64897624 44.69152841 -77.4921875 43.01171875 C-76.85450439 42.67263489 -76.21682129 42.33355103 -75.55981445 41.98419189 C-69.73477979 38.87737013 -63.98333856 35.64781846 -58.25 32.375 C-50.55127925 27.9840615 -42.80489387 23.69938595 -35 19.5 C-23.23618138 13.17002817 -11.6034379 6.61860884 0 0 Z " fill="#2E7C32" transform="translate(220,59)"/>
<path d="M0 0 C3.49029792 1.97277708 6.19844633 4.39689265 8 8 C8.10413644 10.48013449 8.14779807 12.93258706 8.14717102 15.41326904 C8.15084771 16.18661945 8.1545244 16.95996985 8.1583125 17.75675511 C8.16937346 20.36225742 8.17319726 22.96771988 8.17700195 25.57324219 C8.18326479 27.43570076 8.18991143 29.29815808 8.19691467 31.16061401 C8.21434127 36.23098032 8.22488099 41.30133719 8.2331202 46.37172604 C8.23826691 49.53805392 8.2443428 52.70437885 8.25063133 55.87070465 C8.26968816 65.77308434 8.28391817 75.67545655 8.2922433 85.57785106 C8.3020181 97.01644087 8.32834195 108.45483729 8.36874419 119.89335895 C8.39888427 128.7290904 8.41371018 137.56476635 8.41702431 146.40054822 C8.41937724 151.68029427 8.42836915 156.95983384 8.45348549 162.23952484 C8.47673425 167.20700624 8.48101229 172.17414475 8.47072411 177.14166641 C8.47022785 178.96457432 8.47657456 180.78749892 8.49028015 182.61035538 C8.50795294 185.10024776 8.50091627 187.58890343 8.48774719 190.07879639 C8.49871644 190.79923527 8.50968568 191.51967416 8.52098733 192.26194453 C8.45687285 197.28714533 7.16194972 200.13527312 4 204 C-0.365558 206.910372 -3.79500079 207.6506249 -9 207 C-13.3565069 204.69361399 -16.30865675 202.11777305 -19 198 C-19.38937444 195.27412794 -19.54996056 192.95369788 -19.52139282 190.23269653 C-19.52904392 189.45748842 -19.53669501 188.68228031 -19.54457796 187.88358104 C-19.56519371 185.28946064 -19.55726317 182.69622928 -19.54931641 180.10205078 C-19.55801197 178.24076519 -19.56837871 176.37948677 -19.58029175 174.51821899 C-19.60708176 169.46440661 -19.60822801 164.41089327 -19.60316515 159.35702372 C-19.60102621 155.13732076 -19.61079128 150.91767838 -19.62037599 146.69798839 C-19.64257016 136.74213502 -19.64343923 126.78643255 -19.63134766 116.83056641 C-19.61926795 106.56197846 -19.64388899 96.29393858 -19.68648779 86.02544415 C-19.72172329 77.20743699 -19.73372196 68.38960424 -19.72721231 59.57152927 C-19.72358651 54.30570444 -19.72885913 49.04027049 -19.75664139 43.77450943 C-19.78179503 38.82157099 -19.77791462 33.86948646 -19.75181961 28.91656113 C-19.74708795 27.1005296 -19.75255832 25.28443801 -19.76906586 23.46847534 C-19.89923578 8.0337436 -19.89923578 8.0337436 -16.07846069 3.42770386 C-10.92178061 -0.6389039 -6.46905184 -0.96991286 0 0 Z " fill="#E8E9E8" transform="translate(384,282)"/>
<path d="M0 0 C4.19488921 1.73267163 6.51123022 4.23735202 9 8 C9.38937444 10.72587206 9.54996056 13.04630212 9.52139282 15.76730347 C9.52904392 16.54251158 9.53669501 17.31771969 9.54457796 18.11641896 C9.56519371 20.71053936 9.55726317 23.30377072 9.54931641 25.89794922 C9.55801197 27.75923481 9.56837871 29.62051323 9.58029175 31.48178101 C9.60708176 36.53559339 9.60822801 41.58910673 9.60316515 46.64297628 C9.60102621 50.86267924 9.61079128 55.08232162 9.62037599 59.30201161 C9.64257016 69.25786498 9.64343923 79.21356745 9.63134766 89.16943359 C9.61926795 99.43802154 9.64388899 109.70606142 9.68648779 119.97455585 C9.72172329 128.79256301 9.73372196 137.61039576 9.72721231 146.42847073 C9.72358651 151.69429556 9.72885913 156.95972951 9.75664139 162.22549057 C9.78179503 167.17842901 9.77791462 172.13051354 9.75181961 177.08343887 C9.74708795 178.8994704 9.75255832 180.71556199 9.76906586 182.53152466 C9.8992384 197.9665676 9.8992384 197.9665676 6.09799194 202.54104614 C1.66671609 206.05826086 -0.88155272 207.22538738 -6.5 206.9375 C-11.05492659 206.30087133 -13.16350512 204.69603878 -16 201 C-18.41888695 197.31644144 -18.2911612 193.65475124 -18.28088379 189.39091492 C-18.28682603 188.62064478 -18.29276828 187.85037465 -18.29889059 187.05676299 C-18.31624521 184.47358904 -18.31927934 181.89060068 -18.32226562 179.30737305 C-18.33152332 177.45609135 -18.34157282 175.60481348 -18.35235596 173.75354004 C-18.37859403 168.72247706 -18.39149171 163.69146745 -18.40037727 158.66034675 C-18.40623994 155.51711099 -18.41444975 152.37388981 -18.42338562 149.23066139 C-18.45073201 139.39609459 -18.47006741 129.56156112 -18.4777894 119.72695893 C-18.48675237 108.37430787 -18.5218572 97.02213823 -18.57979059 85.66963357 C-18.62301884 76.89413455 -18.64319763 68.11877101 -18.64587164 59.34316665 C-18.64796801 54.10188244 -18.65978799 48.86105089 -18.69551086 43.61987877 C-18.72846426 38.68916279 -18.73278848 33.75923991 -18.71523285 28.82845306 C-18.71369163 27.0204665 -18.72238431 25.21243737 -18.74214935 23.40455818 C-18.90028291 8.03714182 -18.90028291 8.03714182 -15.08044434 3.43244934 C-10.05413392 -0.53653829 -6.27363797 -0.54510283 0 0 Z " fill="#E9E9E9" transform="translate(329,282)"/>
<path d="M0 0 C4.53440837 2.22598229 6.82717107 4.48397516 9 9 C9.28269415 11.63501594 9.40578583 14.02919673 9.38095093 16.66014099 C9.3856309 17.42380401 9.39031087 18.18746703 9.39513266 18.97427136 C9.40708365 21.52916763 9.39762515 24.08352762 9.38818359 26.63842773 C9.39224929 28.47177442 9.39759115 30.30511866 9.40411377 32.13845825 C9.41779439 37.1157401 9.41248536 42.09283545 9.40297651 47.07012057 C9.39538266 52.27901637 9.40242487 57.48789618 9.40713501 62.6967926 C9.41259384 71.44543322 9.40539809 80.19399787 9.39111328 88.94262695 C9.37479164 99.0554407 9.38007125 109.16807296 9.3965925 119.2808823 C9.41020979 127.96382336 9.41212567 136.6467098 9.40427649 145.32965809 C9.39960067 150.51540511 9.39897256 155.70106686 9.40888596 160.8868084 C9.41755667 165.76320889 9.4115317 170.63937562 9.39420319 175.51575089 C9.3902387 177.3047821 9.39137174 179.09383301 9.39799118 180.88285637 C9.40619845 183.326461 9.3958953 185.76931825 9.38095093 188.21287537 C9.38764309 188.91959505 9.39433526 189.62631473 9.40123022 190.35445017 C9.34667819 194.95847449 8.40551157 198.08349897 6 202 C2.35071638 205.37558735 -0.28082909 206.80163413 -5.25 207.375 C-9.91333176 206.90866682 -12.70857878 205.30010571 -16 202 C-18.44538767 198.32652307 -18.29109717 194.61315515 -18.28088379 190.35295105 C-18.28682603 189.57859736 -18.29276828 188.80424368 -18.29889059 188.00642473 C-18.31624588 185.40943148 -18.3192794 182.81262282 -18.32226562 180.21557617 C-18.33152327 178.35444241 -18.34157277 176.49331244 -18.35235596 174.63218689 C-18.37859448 169.57426526 -18.3914918 164.51639671 -18.40037727 159.45841765 C-18.40623987 156.29843096 -18.41444966 153.13845878 -18.42338562 149.97847939 C-18.45073212 140.09158686 -18.47006747 130.20472748 -18.4777894 120.31779975 C-18.48675242 108.90458925 -18.52185741 97.49185763 -18.57979059 86.07879275 C-18.62301824 77.25658504 -18.6431976 68.4345121 -18.64587164 59.6121996 C-18.64796805 54.34297072 -18.65978893 49.07419208 -18.69551086 43.80507469 C-18.7284632 38.84809515 -18.73278898 33.89190453 -18.71523285 28.93485451 C-18.71369158 27.11719271 -18.72238503 25.29948859 -18.74214935 23.48193359 C-18.90028324 8.03173148 -18.90028324 8.03173148 -15.08044434 3.42671204 C-10.08611923 -0.50771674 -6.24674014 -0.6908837 0 0 Z " fill="#E8E9E8" transform="translate(275,282)"/>
</svg>