<svg width="103" height="90" viewBox="0 0 103 90" fill="none" xmlns="http://www.w3.org/2000/svg">
<path d="M28.8983 0L21.5911 13.5526L17.8792 6.67893L21.5911 0H18.1125L16.1885 3.54392L14.284 0H10.8053L14.4977 6.67893L10.7858 13.5526L3.47868 0H0L9.42547 16.9797H12.1851L16.1885 9.73604L20.2113 16.9797H22.9709L32.3964 0H28.8983ZM41.0834 3.44656L44.5232 9.81393H37.663L41.0834 3.44656ZM39.7036 0L30.2781 16.9797H33.7568L36.2249 12.4232H45.9225L48.3906 16.9797H51.8692L42.4632 0H39.7036ZM67.8634 0L60.5562 13.5526L53.2491 0H49.7704L59.1764 16.9797H61.936L71.3615 0H67.8634ZM75.0151 0V16.9797H90.0375L91.534 14.2536H78.0079V9.81393H86.1702L87.6083 7.1852H78.0079V2.66768H90.0764L91.5145 0H75.0151Z" fill="white"/>
<path d="M38.1294 75.026C37.3521 74.695 36.9051 74.5781 35.9334 74.5781C33.0377 74.5781 28.5874 76.058 23.107 76.058C8.1234 76.058 0 67.2761 0 55.7292C0 44.7664 7.34604 33.8425 23.6317 33.8425C30.6474 33.8425 35.6225 35.9845 37.4881 35.9845C38.0128 35.9845 38.3238 35.8482 38.6541 35.5366H40.2672L40.5975 46.1878H38.6736C36.2832 39.5284 31.0749 35.926 23.9232 35.926C14.2645 35.926 7.81245 43.1502 7.81245 54.0546C7.81245 65.3484 15.2168 73.7408 25.0698 73.7408C31.3858 73.7408 36.9828 70.3916 40.5975 64.2579H42.5409L38.1294 75.026Z" fill="#78BE43"/>
<path d="M77.0362 55.2034C75.0539 51.0753 74.5875 50.7443 71.4392 50.6859V49.0697H86.52V50.6859C83.6243 50.6859 82.7886 51.27 82.7886 52.4968C82.7886 53.1978 83.0413 53.8598 83.702 55.2034L89.746 67.8603L94.2547 57.7932C95.2847 55.5344 95.6734 54.113 95.6734 53.1394C95.6734 51.27 94.449 50.6859 91.6117 50.6859V49.0697H103V50.6859C100.415 50.8222 99.3269 51.9126 97.5779 55.7876L85.7815 82.1917C83.3911 87.5465 81.3311 90 78.6298 90C76.7058 90 75.2094 88.5786 75.2094 86.7092C75.2094 82.5812 80.2234 84.2558 82.7498 81.7439C83.3911 81.1013 84.3628 80.1277 86.4811 75.026L77.0362 55.2034Z" fill="#78BE43"/>
<path d="M50.6255 33.2C52.9575 33.2 54.5511 34.563 54.5511 36.5492C54.5511 38.6132 52.8798 40.0347 50.4311 40.0347C48.1185 40.0347 46.5055 38.6716 46.5055 36.6076C46.5055 34.563 48.1185 33.2 50.6255 33.2ZM42.8907 50.3743L52.6272 47.6677H54.0458V68.1329C54.0458 72.3973 54.9398 73.4293 58.7489 73.4293V75.0455H42.8907V73.4098C46.5055 73.5461 47.9241 72.3194 47.9241 68.8339V54.3661C47.9241 53.0031 47.7881 52.4384 42.8907 51.7763V50.3743Z" fill="#78BE43"/>
<path d="M76.1423 70.3138C74.2766 74.4419 71.2449 75.727 68.0966 75.727C63.7823 75.727 60.6923 73.1372 60.6923 67.2761V51.6206H57.7966V50.7249C60.8478 49.0697 63.9766 46.2268 65.2593 41.8456H66.7946V49.0697H76.1423V51.6011H66.7946V66.4973C66.7946 69.7296 67.7663 72.4362 70.6036 72.4362C72.411 72.4362 73.4993 71.5405 74.7236 69.2039L76.1423 70.3138Z" fill="#78BE43"/>
</svg>
